<svg width="2565" height="623" viewBox="0 0 2565 623" fill="none" xmlns="http://www.w3.org/2000/svg">
<g clip-path="url(#clip0_1709_46)">
<path d="M995.203 513.798V492.919H1005.44C1009.28 492.919 1012.64 495.399 1012.64 499.799C1012.64 502.598 1011.28 504.638 1009.36 505.798L1013.28 513.798H1007.36L1004.16 506.838H1000.56V513.798H995.203ZM1003.36 526.277C990.883 526.277 980.724 516.117 980.724 503.638C980.724 491.159 990.883 481 1003.36 481C1015.84 481 1026 491.159 1026 503.638C1026 516.117 1015.92 526.277 1003.36 526.277ZM1003.36 520.277C1012.64 520.277 1020.08 512.838 1020.08 503.638C1020.08 494.439 1012.56 486.92 1003.36 486.92C994.163 486.92 986.723 494.439 986.723 503.638C986.723 512.838 994.163 520.277 1003.36 520.277ZM1000.56 502.918H1004C1005.6 502.918 1006.96 501.878 1006.96 499.799C1006.96 497.719 1005.6 496.919 1004.08 496.919H1000.56V502.918Z" fill="white"/>
<path d="M854.761 601.738V484.361H879.079V532.998H929.986V484.361H954.467V601.738H929.986V553.101H879.079V601.738H854.761Z" fill="white"/>
<path d="M813.095 525.216C811.149 512.246 801.098 504.302 787.479 504.302C769.159 504.302 757.162 518.406 757.162 543.049C757.162 568.34 769.322 581.797 787.317 581.797C800.774 581.797 810.663 574.339 813.095 561.693L837.738 561.856C834.982 583.58 816.824 603.359 786.993 603.359C755.541 603.359 732.357 581.31 732.357 543.049C732.357 504.788 756.027 482.739 786.993 482.739C814.068 482.739 834.495 498.303 837.738 525.216H813.095Z" fill="white"/>
<path d="M714.848 484.361V601.738H690.529V484.361H714.848Z" fill="white"/>
<path d="M599.902 601.738V484.361H624.221V581.635H674.803V601.738H599.902Z" fill="white"/>
<path d="M453.344 484.361H483.499L516.086 563.963H517.383L549.969 484.361H580.124V601.738H556.454V524.892H555.482L524.84 601.252H508.628L477.987 524.567H477.014V601.738H453.344V484.361Z" fill="white"/>
<path d="M433.565 484.361V601.738H409.246V484.361H433.565Z" fill="white"/>
<path d="M311.484 601.738V484.361H390.276V504.464H335.803V532.998H386.223V553.101H335.803V581.635H390.439V601.738H311.484Z" fill="white"/>
<path d="M192 601.738V484.361H216.319V532.998H267.225V484.361H291.706V601.738H267.225V553.101H216.319V601.738H192Z" fill="white"/>
<path d="M2522.42 368.941C2512.7 368.941 2503.5 368.073 2494.81 366.336C2486.13 364.947 2478.14 362.168 2470.85 358C2463.55 353.832 2456.78 348.101 2450.53 340.807C2442.19 330.387 2434.2 320.488 2426.56 311.11C2418.92 301.385 2410.76 290.27 2402.07 277.766C2393.74 265.262 2383.49 249.285 2371.33 229.834C2366.12 221.151 2358.66 214.378 2348.93 209.515C2341.29 205.694 2333.65 203.089 2326.01 201.7C2318.71 199.963 2312.64 198.921 2307.77 198.574C2304.99 198.227 2302.91 199.095 2301.52 201.179C2300.48 203.263 2299.96 205.868 2299.96 208.994V300.69C2299.96 311.805 2302.56 321.53 2307.77 329.866C2312.98 337.855 2322.01 343.065 2334.86 345.496C2340.77 346.538 2345.11 347.754 2347.89 349.143C2350.67 350.532 2352.06 352.443 2352.06 354.874C2352.06 356.958 2350.67 358.347 2347.89 359.042C2345.11 360.084 2341.46 360.605 2336.95 360.605C2327.57 360.605 2320.28 360.258 2315.07 359.563C2310.2 358.868 2305.69 358.347 2301.52 358C2297.7 357.305 2292.49 356.958 2285.89 356.958C2277.21 356.958 2269.39 357.305 2262.45 358C2255.85 358.347 2249.07 358.868 2242.13 359.563C2235.53 360.258 2227.54 360.605 2218.16 360.605C2213.65 360.605 2210 360.084 2207.22 359.042C2204.44 358.347 2203.05 356.958 2203.05 354.874C2203.05 350.706 2208.78 347.58 2220.24 345.496C2233.44 343.065 2243 339.07 2248.9 333.513C2255.15 327.956 2258.28 318.751 2258.28 305.9V83.9541C2258.28 70.7555 2257.58 60.8565 2256.19 54.2571C2255.15 47.3104 2252.37 42.4478 2247.86 39.6691C2243.69 36.8905 2236.57 34.9801 2226.5 33.9381C2220.59 33.2434 2216.25 32.0278 2213.47 30.2911C2210.69 28.2071 2209.3 25.9494 2209.3 23.5181C2209.3 21.4341 2210.69 20.0448 2213.47 19.3501C2216.25 18.3081 2219.9 17.7871 2224.41 17.7871C2233.79 17.7871 2240.74 17.7871 2245.25 17.7871C2250.12 17.7871 2254.63 17.9608 2258.8 18.3081C2262.97 18.3081 2268.52 18.3081 2275.47 18.3081C2282.07 18.3081 2287.97 18.1344 2293.18 17.7871C2298.39 17.0924 2304.13 16.5714 2310.38 16.2241C2316.98 15.8768 2325.31 15.7031 2335.39 15.7031C2373.59 15.7031 2402.59 22.8234 2422.39 37.0641C2442.54 51.3048 2452.61 72.6658 2452.61 101.147C2452.61 116.777 2449.48 130.323 2443.23 141.785C2436.98 152.9 2429.17 162.278 2419.79 169.919C2410.41 177.56 2400.86 183.812 2391.13 188.675C2389.74 189.022 2389.05 189.891 2389.05 191.28C2389.4 192.322 2390.09 193.711 2391.13 195.448C2401.9 211.773 2412.15 227.229 2421.87 241.817C2431.94 256.405 2442.89 270.646 2454.69 284.539C2466.5 298.432 2480.57 312.847 2496.9 327.782C2505.93 335.771 2515.13 340.633 2524.51 342.37C2533.89 344.107 2544.65 344.975 2556.81 344.975C2562.02 344.975 2564.63 346.885 2564.63 350.706C2564.63 355.916 2562.02 359.737 2556.81 362.168C2551.6 364.947 2545.7 366.683 2539.1 367.378C2532.5 368.42 2526.94 368.941 2522.42 368.941ZM2327.57 186.591C2343.55 186.591 2357.27 182.944 2368.73 175.65C2380.54 168.356 2389.57 158.804 2395.82 146.995C2402.42 135.186 2405.72 122.682 2405.72 109.483C2405.72 95.2424 2403.81 82.2174 2399.99 70.4081C2396.52 58.5988 2389.22 49.2208 2378.11 42.2741C2367.34 34.9801 2351.02 31.3331 2329.13 31.3331C2318.02 31.3331 2310.73 34.9801 2307.25 42.2741C2303.78 49.2208 2301.69 61.7248 2301 79.7861C2300.65 88.4694 2300.31 100.279 2299.96 115.214C2299.96 129.802 2299.96 147.516 2299.96 168.356C2299.96 177.039 2302.39 182.249 2307.25 183.986C2312.11 185.723 2318.89 186.591 2327.57 186.591Z" fill="white"/>
<path d="M1930.85 360.605C1926.34 360.605 1922.69 360.084 1919.91 359.042C1917.13 358.347 1915.75 356.958 1915.75 354.874C1915.75 350.706 1921.48 347.58 1932.94 345.496C1946.14 343.065 1955.86 339.07 1962.11 333.513C1968.37 327.956 1971.49 318.925 1971.49 306.421V71.9711C1971.49 59.4671 1968.89 50.6101 1963.68 45.4001C1958.81 40.1901 1949.78 36.3695 1936.59 33.9381C1930.68 32.8961 1926.34 31.5068 1923.56 29.7701C1920.78 28.0334 1919.39 25.9495 1919.39 23.5181C1919.39 21.4341 1920.78 20.0448 1923.56 19.3501C1926.34 18.3081 1929.99 17.7871 1934.5 17.7871C1947.7 17.7871 1958.81 17.9608 1967.85 18.3081C1977.22 18.6555 1986.25 19.0028 1994.94 19.3501C2003.97 19.3501 2014.56 19.3501 2026.72 19.3501C2038.18 19.3501 2050.16 19.3501 2062.67 19.3501C2075.52 19.0028 2087.33 18.8291 2098.1 18.8291C2109.9 18.4818 2119.8 18.3081 2127.79 18.3081C2136.13 17.9608 2140.99 17.7871 2142.38 17.7871C2144.12 17.7871 2146.03 18.1345 2148.11 18.8291C2150.2 19.5238 2151.41 20.7394 2151.76 22.4761C2153.49 32.2014 2155.23 41.9268 2156.97 51.6521C2158.7 61.0301 2159.57 69.1924 2159.57 76.1391C2159.57 79.2651 2158.7 81.3491 2156.97 82.3911C2155.58 83.4331 2154.02 83.9541 2152.28 83.9541C2150.54 83.9541 2149.33 83.6068 2148.63 82.9121C2147.94 81.8701 2147.24 80.4808 2146.55 78.7441C2144.81 72.8395 2143.07 67.2821 2141.34 62.0721C2139.6 56.5148 2137.52 52.5204 2135.09 50.0891C2130.22 44.5318 2124.84 40.8848 2118.94 39.1481C2113.03 37.0641 2106.78 36.0221 2100.18 36.0221H2031.93C2029.15 36.0221 2025.33 37.5851 2020.47 40.7111C2015.6 43.8371 2013.17 47.8315 2013.17 52.6941V163.146C2013.17 166.272 2014.04 169.051 2015.78 171.482C2017.86 173.566 2020.12 174.608 2022.55 174.608H2074.13C2084.2 174.608 2091.15 172.871 2094.97 169.398C2098.79 165.577 2101.92 158.804 2104.35 149.079C2106.43 141.438 2109.56 137.617 2113.73 137.617C2115.11 137.617 2116.5 138.312 2117.89 139.701C2119.63 141.09 2120.5 143.174 2120.5 145.953C2120.5 147.342 2120.32 150.468 2119.98 155.331C2119.98 160.194 2119.8 165.23 2119.46 170.44C2119.11 175.65 2118.94 179.644 2118.94 182.423C2118.94 185.896 2118.94 190.585 2118.94 196.49C2119.28 202.047 2119.46 207.431 2119.46 212.641C2119.8 217.851 2119.98 221.151 2119.98 222.54C2119.98 224.971 2119.63 227.055 2118.94 228.792C2118.59 230.529 2117.37 231.397 2115.29 231.397C2110.08 231.397 2106.08 225.84 2103.31 214.725C2101.22 206.736 2098.44 200.832 2094.97 197.011C2091.5 193.19 2086.29 191.28 2079.34 191.28H2030.89C2024.98 191.28 2020.47 192.148 2017.34 193.885C2014.56 195.274 2013.17 198.921 2013.17 204.826V304.858C2013.17 318.057 2015.95 327.261 2021.51 332.471C2027.07 337.334 2035.75 339.765 2047.56 339.765H2086.11C2097.23 339.765 2106.43 339.244 2113.73 338.202C2121.37 336.813 2127.97 334.381 2133.52 330.908C2139.08 327.087 2143.94 322.051 2148.11 315.799C2152.63 309.547 2157.66 301.211 2163.22 290.791C2164.26 288.707 2165.48 286.97 2166.87 285.581C2168.26 284.192 2169.82 283.671 2171.56 284.018C2173.29 284.365 2174.68 285.234 2175.72 286.623C2176.77 287.665 2177.29 289.228 2177.29 291.312C2177.29 294.438 2176.42 299.995 2174.68 307.984C2172.95 315.625 2170.69 323.614 2167.91 331.95C2165.48 340.286 2163.22 346.885 2161.14 351.748C2160.09 354.179 2159.05 356.263 2158.01 358C2157.32 359.737 2155.93 360.605 2153.84 360.605C2137.17 360.605 2121.71 360.431 2107.47 360.084C2093.23 359.737 2079.69 359.389 2066.84 359.042C2053.98 358.695 2041.31 358.347 2028.8 358C2016.65 357.653 2003.97 357.479 1990.77 357.479C1983.13 357.479 1976.53 357.653 1970.97 358C1965.41 358.695 1959.68 359.216 1953.78 359.563C1947.87 360.258 1940.23 360.605 1930.85 360.605Z" fill="white"/>
<path d="M1451.86 360.605C1447.35 360.605 1443.7 360.084 1440.92 359.042C1438.14 358.347 1436.75 356.958 1436.75 354.874C1436.75 352.443 1438.14 350.532 1440.92 349.143C1443.7 347.754 1448.04 346.538 1453.95 345.496C1462.63 343.759 1469.75 339.591 1475.31 332.992C1480.87 326.393 1484.51 317.015 1486.25 304.858C1490.42 273.598 1494.06 243.901 1497.19 215.767C1500.32 187.286 1502.75 161.757 1504.48 139.18C1506.57 116.256 1507.61 97.5001 1507.61 82.9121C1507.61 80.1335 1507.61 77.1811 1507.61 74.0551C1507.61 70.9291 1507.44 68.1505 1507.09 65.7191C1506.74 62.9405 1506.22 60.1618 1505.53 57.3831C1504.83 54.2571 1502.75 51.3048 1499.27 48.5261C1493.02 43.3161 1486.94 39.8428 1481.04 38.1061C1475.14 36.0221 1468.19 34.2855 1460.2 32.8961C1456.73 32.2015 1453.95 30.9858 1451.86 29.2491C1449.78 27.1651 1448.74 24.9074 1448.74 22.4761C1448.74 19.6975 1450.3 18.1345 1453.43 17.7871C1456.9 17.0925 1461.24 16.7451 1466.45 16.7451C1469.93 16.7451 1475.14 16.9188 1482.08 17.2661C1489.38 17.6134 1497.19 18.1345 1505.53 18.8291C1513.86 19.5238 1521.5 20.0448 1528.45 20.3921C1535.74 20.7395 1541.13 20.9131 1544.6 20.9131C1547.03 20.9131 1549.12 21.6078 1550.85 22.9971C1552.59 24.3864 1553.81 26.4704 1554.5 29.2491C1556.24 35.5011 1557.97 42.1004 1559.71 49.0471C1561.45 55.9938 1563.53 62.7668 1565.96 69.3661L1648.28 278.287C1649.32 280.718 1651.23 282.281 1654.01 282.976C1656.79 283.323 1658.87 282.281 1660.26 279.85L1762.9 66.2401C1764.64 60.3355 1766.37 53.7361 1768.11 46.4421C1769.85 39.1481 1771.24 32.7225 1772.28 27.1651C1773.32 22.6498 1775.06 20.3921 1777.49 20.3921H1796.24C1806.66 20.3921 1817.61 19.6975 1829.07 18.3081C1840.88 16.9188 1849.73 16.2241 1855.64 16.2241C1857.38 16.2241 1859.63 16.5715 1862.41 17.2661C1865.19 17.6134 1866.58 19.0028 1866.58 21.4341C1866.58 23.8655 1865.54 25.7758 1863.45 27.1651C1861.72 28.5545 1858.24 30.2911 1853.03 32.3751C1848.52 34.1118 1843.48 36.0221 1837.92 38.1061C1832.37 40.1901 1827.16 42.2741 1822.29 44.3581C1818.82 45.7474 1815.87 48.1788 1813.44 51.6521C1811.01 54.7781 1809.79 58.2514 1809.79 62.0721C1809.79 86.3855 1810.14 109.309 1810.83 130.844C1811.87 152.031 1812.92 172.524 1813.96 192.322C1815 211.773 1816.22 231.05 1817.61 250.153C1819 269.256 1820.21 288.707 1821.25 308.505C1821.95 319.272 1825.42 327.608 1831.67 333.513C1837.92 339.07 1847.48 343.065 1860.33 345.496C1866.23 346.538 1870.57 347.754 1873.35 349.143C1876.13 350.532 1877.52 352.443 1877.52 354.874C1877.52 356.958 1876.13 358.347 1873.35 359.042C1870.57 360.084 1866.93 360.605 1862.41 360.605C1853.03 360.605 1845.22 360.258 1838.97 359.563C1833.06 359.216 1827.33 358.868 1821.77 358.521C1816.22 358.174 1809.44 358 1801.45 358C1794.51 358 1788.6 358.174 1783.74 358.521C1779.23 358.868 1774.19 359.216 1768.63 359.563C1763.42 360.258 1756.13 360.605 1746.75 360.605C1742.23 360.605 1738.59 360.084 1735.81 359.042C1733.03 358.347 1731.64 356.958 1731.64 354.874C1731.64 352.443 1733.03 350.532 1735.81 349.143C1738.59 347.406 1742.93 346.191 1748.83 345.496C1758.91 344.107 1765.85 340.633 1769.67 335.076C1773.49 329.171 1775.4 320.141 1775.4 307.984C1775.4 282.976 1775.06 260.399 1774.36 240.254C1774.02 220.109 1773.32 200.311 1772.28 180.86C1771.24 161.062 1770.19 139.527 1769.15 116.256C1768.81 112.435 1767.76 110.699 1766.03 111.046C1764.29 111.046 1762.55 112.783 1760.82 116.256L1640.99 360.605C1640.29 362.342 1638.73 363.21 1636.3 363.21C1633.87 363.557 1632.3 362.515 1631.61 360.084C1618.06 319.446 1603.47 279.503 1587.84 240.254C1572.56 200.658 1555.2 158.11 1535.74 112.609C1535.05 110.872 1533.83 110.004 1532.1 110.004C1530.36 110.004 1529.32 110.872 1528.97 112.609C1525.85 136.922 1522.89 159.325 1520.11 179.818C1517.68 199.963 1515.77 219.935 1514.38 239.733C1512.99 259.531 1512.3 281.239 1512.3 304.858C1512.3 314.236 1515.25 322.919 1521.16 330.908C1527.06 338.549 1535.4 343.412 1546.16 345.496C1552.07 346.538 1556.41 347.754 1559.19 349.143C1561.97 350.532 1563.36 352.443 1563.36 354.874C1563.36 356.958 1561.97 358.347 1559.19 359.042C1556.41 360.084 1552.76 360.605 1548.25 360.605C1538.87 360.605 1531.75 360.258 1526.89 359.563C1522.37 359.216 1518.2 358.868 1514.38 358.521C1510.91 358.174 1505.87 358 1499.27 358C1493.02 358 1488.16 358.174 1484.69 358.521C1481.21 358.868 1477.22 359.216 1472.7 359.563C1468.19 360.258 1461.24 360.605 1451.86 360.605Z" fill="white"/>
<path d="M1080.19 360.605C1075.68 360.605 1072.03 359.91 1069.25 358.521C1066.47 357.479 1065.08 355.916 1065.08 353.832C1065.08 351.4 1066.47 349.316 1069.25 347.58C1072.38 345.496 1076.72 343.585 1082.28 341.849C1091.31 339.07 1099.64 334.902 1107.28 329.345C1114.92 323.787 1121.52 314.583 1127.08 301.732C1136.81 279.502 1145.66 258.662 1153.65 239.212C1161.99 219.761 1169.8 200.658 1177.1 181.902C1184.39 163.146 1191.86 143.695 1199.5 123.55C1207.49 103.057 1215.82 80.8278 1224.51 56.8618C1226.24 51.9991 1227.81 47.1364 1229.2 42.2738C1230.59 37.4111 1231.45 32.2011 1231.8 26.6438C1234.93 25.6017 1238.05 24.5597 1241.18 23.5178C1244.31 22.4758 1247.43 20.9128 1250.56 18.8288C1253.68 16.7448 1255.77 13.6188 1256.81 9.45076C1258.2 5.28275 1259.42 2.50408 1260.46 1.11475C1260.8 0.767417 1261.15 0.59375 1261.5 0.59375C1262.19 0.59375 1262.71 0.941079 1263.06 1.63576C1263.76 3.02509 1264.28 4.76177 1264.62 6.84576C1265.32 8.92976 1266.01 11.0137 1266.71 13.0977C1275.04 39.4951 1283.73 66.4134 1292.76 93.8528C1301.79 121.292 1310.47 147.863 1318.81 173.566C1327.49 198.921 1335.31 221.845 1342.25 242.338C1349.55 262.483 1355.28 278.808 1359.45 291.312C1364.31 305.205 1369.52 315.625 1375.08 322.572C1380.63 329.518 1386.37 334.381 1392.27 337.16C1398.52 339.938 1405.12 342.022 1412.07 343.412C1417.97 344.454 1422.31 346.19 1425.09 348.622C1427.87 350.706 1429.26 352.963 1429.26 355.395C1429.26 357.479 1427.87 358.868 1425.09 359.563C1422.31 360.257 1418.67 360.605 1414.15 360.605C1409.29 360.605 1402.69 360.257 1394.35 359.563C1386.02 359.215 1377.16 358.694 1367.78 358C1358.41 357.652 1349.72 357.479 1341.73 357.479C1335.13 357.479 1328.36 357.479 1321.41 357.479C1314.47 357.479 1308.04 357.652 1302.14 358C1296.23 358 1291.2 358 1287.03 358C1282.51 358 1278.87 357.479 1276.09 356.437C1273.31 355.395 1271.92 353.832 1271.92 351.748C1271.92 349.316 1273.66 347.232 1277.13 345.496C1280.6 343.759 1284.6 342.543 1289.11 341.849C1300.57 340.112 1308.74 337.16 1313.6 332.992C1318.46 328.824 1320.89 323.961 1320.89 318.404C1320.89 313.194 1319.68 305.726 1317.25 296.001C1315.16 285.928 1312.56 275.334 1309.43 264.22C1306.31 252.758 1303.35 242.685 1300.57 234.002C1299.88 231.223 1298.49 229.66 1296.41 229.313C1294.67 228.618 1291.37 228.271 1286.51 228.271H1188.04C1186.65 228.271 1185.09 228.965 1183.35 230.355C1181.96 231.397 1180.57 233.828 1179.18 237.649C1178.14 241.122 1176.4 246.679 1173.97 254.321C1171.54 261.615 1169.11 269.43 1166.68 277.766C1164.25 286.102 1162.16 293.569 1160.43 300.169C1158.69 306.768 1157.82 310.936 1157.82 312.673C1157.82 320.314 1160.77 326.74 1166.68 331.95C1172.58 336.812 1179.7 340.286 1188.04 342.37C1199.5 345.496 1205.23 348.969 1205.23 352.79C1205.23 354.874 1203.84 356.437 1201.06 357.479C1198.28 358.173 1194.64 358.521 1190.12 358.521C1185.61 358.521 1179.01 358.347 1170.32 358C1161.64 357.652 1152.44 357.479 1142.71 357.479C1131.25 357.479 1120.13 358 1109.37 359.042C1098.6 360.084 1088.87 360.605 1080.19 360.605ZM1202.1 211.078H1282.86C1287.72 211.078 1290.15 210.209 1290.15 208.473C1290.15 207.778 1289.98 207.083 1289.63 206.389C1289.63 205.347 1289.46 204.305 1289.11 203.263L1248.47 76.1388C1246.39 69.8868 1244.83 66.7608 1243.79 66.7608C1243.09 66.7608 1241.7 69.7131 1239.62 75.6177L1192.21 203.263C1191.51 205.347 1191.16 206.736 1191.16 207.431C1191.16 209.167 1192.03 210.209 1193.77 210.557C1195.85 210.904 1198.63 211.078 1202.1 211.078Z" fill="white"/>
<path d="M1001.52 366.857C998.398 366.857 992.146 364.252 982.768 359.042C973.737 353.832 965.054 345.496 956.718 334.034C955.329 332.297 950.987 327.087 943.693 318.404C936.746 309.721 927.716 298.953 916.601 286.102C905.834 272.903 894.024 258.663 881.173 243.38C868.322 228.097 855.47 212.815 842.619 197.532C829.768 182.249 817.785 168.182 806.67 155.331C795.555 142.132 786.177 131.191 778.536 122.508C771.242 113.477 766.727 107.92 764.99 105.836C762.559 102.71 760.475 100.626 758.738 99.5841C757.001 98.1948 755.438 97.5002 754.049 97.5002C752.312 97.5002 751.097 98.8895 750.402 101.668C749.707 104.099 749.36 106.357 749.36 108.441C749.013 125.46 748.665 145.085 748.318 167.314C747.971 189.543 747.623 212.467 747.276 236.086C746.929 259.705 746.755 282.281 746.755 303.816C746.755 313.194 749.013 321.877 753.528 329.866C758.391 337.855 767.248 343.065 780.099 345.496C786.004 346.538 790.345 347.754 793.124 349.143C795.903 350.532 797.292 352.443 797.292 354.874C797.292 356.958 795.903 358.347 793.124 359.042C790.345 360.084 786.698 360.605 782.183 360.605C772.805 360.605 765.685 360.258 760.822 359.563C756.307 359.216 752.139 358.868 748.318 358.521C744.845 358.174 739.808 358 733.209 358C726.957 358 722.094 358.174 718.621 358.521C715.148 358.868 711.153 359.216 706.638 359.563C702.123 360.258 695.176 360.605 685.798 360.605C681.283 360.605 677.636 360.084 674.857 359.042C672.078 358.347 670.689 356.958 670.689 354.874C670.689 352.443 672.078 350.532 674.857 349.143C677.636 347.754 681.977 346.364 687.882 344.975C697.955 342.196 705.249 337.16 709.764 329.866C714.279 322.225 717.058 313.02 718.1 302.253C719.489 289.054 720.879 271.688 722.268 250.153C723.657 228.271 724.873 203.958 725.915 177.213C726.957 150.121 727.478 122.334 727.478 93.8531C727.478 75.4445 722.615 62.2458 712.89 54.2572C703.512 46.2685 691.182 39.8428 675.899 34.9801C674.51 34.2855 671.384 32.8961 666.521 30.8121C662.006 28.3808 659.748 25.6021 659.748 22.4761C659.748 19.3501 661.311 17.4398 664.437 16.7451C667.563 15.7031 669.994 15.1821 671.731 15.1821C681.804 15.5295 689.966 15.8768 696.218 16.2241C702.47 16.2241 708.027 16.3978 712.89 16.7451C717.753 17.0925 723.136 17.4398 729.041 17.7871C734.946 17.7871 742.587 17.7871 751.965 17.7871C755.091 17.7871 757.522 18.6555 759.259 20.3922C760.996 22.1288 762.732 24.2128 764.469 26.6441C765.858 28.7281 770.374 34.6328 778.015 44.3581C786.004 53.7361 795.729 65.7191 807.191 80.3071C819 94.5478 831.852 110.178 845.745 127.197C859.638 143.869 873.532 160.715 887.425 177.734C901.318 194.406 914.17 210.036 925.979 224.624C937.788 238.865 947.514 250.674 955.155 260.052C963.144 269.43 967.833 274.987 969.222 276.724C970.611 278.113 972.522 280.197 974.953 282.976C977.732 285.755 980.163 287.144 982.247 287.144C985.373 287.144 987.11 283.497 987.457 276.203C987.457 271.34 987.457 262.136 987.457 248.59C987.804 234.697 987.978 218.025 987.978 198.574C988.325 178.776 988.499 157.415 988.499 134.491C988.499 111.567 988.499 88.1221 988.499 64.1561C988.152 57.2095 984.505 50.9575 977.558 45.4001C970.611 39.8428 964.186 36.5431 958.281 35.5011C952.376 34.4591 946.993 33.0698 942.13 31.3331C937.267 29.5965 934.836 27.5125 934.836 25.0811C934.836 22.9971 937.267 21.6078 942.13 20.9131C946.993 19.8711 951.682 19.3501 956.197 19.3501C959.67 19.3501 962.97 19.3501 966.096 19.3501C969.569 19.3501 972.869 19.3501 975.995 19.3501C979.468 19.3501 982.768 19.3501 985.894 19.3501C994.23 19.3501 1000.83 19.3501 1005.69 19.3501C1010.55 19.0028 1015.76 18.6555 1021.32 18.3082C1027.23 17.9608 1035.39 17.7871 1045.81 17.7871C1050.32 17.7871 1053.97 18.3081 1056.75 19.3501C1059.53 20.0448 1060.92 21.4341 1060.92 23.5181C1060.92 28.3808 1055.19 31.8541 1043.73 33.9381C1030.87 36.3695 1022.36 39.4955 1018.2 43.3161C1014.03 47.1368 1011.6 53.3888 1010.9 62.0721C1010.9 63.8088 1010.73 70.5818 1010.38 82.3911C1010.38 94.2005 1010.38 109.136 1010.38 127.197C1010.38 145.258 1010.21 164.709 1009.86 185.549C1009.86 206.389 1009.86 227.229 1009.86 248.069C1009.86 268.562 1009.86 286.97 1009.86 303.295C1009.86 311.631 1010.03 319.272 1010.38 326.219C1011.08 332.818 1011.6 338.549 1011.94 343.412C1012.29 347.927 1012.47 351.401 1012.47 353.832C1012.47 359.389 1011.25 362.863 1008.82 364.252C1006.73 365.989 1004.3 366.857 1001.52 366.857Z" fill="white"/>
<path d="M393.802 360.605C389.287 360.605 385.64 360.084 382.861 359.042C380.083 358.347 378.693 356.958 378.693 354.874C378.693 350.706 384.424 347.58 395.886 345.496C409.085 343.065 418.81 339.07 425.062 333.513C431.314 327.956 434.44 318.925 434.44 306.421V71.9711C434.44 59.4671 431.835 50.6101 426.625 45.4001C421.763 40.1901 412.732 36.3695 399.533 33.9381C393.629 32.8961 389.287 31.5068 386.508 29.7701C383.73 28.0334 382.34 25.9495 382.34 23.5181C382.34 21.4341 383.73 20.0448 386.508 19.3501C389.287 18.3081 392.934 17.7871 397.449 17.7871C410.648 17.7871 421.763 17.9608 430.793 18.3081C440.171 18.6555 449.202 19.0028 457.885 19.3501C466.916 19.3501 477.51 19.3501 489.666 19.3501C501.128 19.3501 513.111 19.3501 525.615 19.3501C538.467 19.0028 550.276 18.8291 561.043 18.8291C572.853 18.4818 582.752 18.3081 590.74 18.3081C599.076 17.9608 603.939 17.7871 605.328 17.7871C607.065 17.7871 608.975 18.1345 611.059 18.8291C613.143 19.5238 614.359 20.7394 614.706 22.4761C616.443 32.2014 618.18 41.9268 619.916 51.6521C621.653 61.0301 622.521 69.1924 622.521 76.1391C622.521 79.2651 621.653 81.3491 619.916 82.3911C618.527 83.4331 616.964 83.9541 615.227 83.9541C613.491 83.9541 612.275 83.6068 611.58 82.9121C610.886 81.8701 610.191 80.4808 609.496 78.7441C607.76 72.8395 606.023 67.2821 604.286 62.0721C602.55 56.5148 600.466 52.5204 598.034 50.0891C593.172 44.5318 587.788 40.8848 581.883 39.1481C575.979 37.0641 569.727 36.0221 563.127 36.0221H494.876C492.098 36.0221 488.277 37.5851 483.414 40.7111C478.552 43.8371 476.12 47.8315 476.12 52.6941V163.146C476.12 166.272 476.989 169.051 478.725 171.482C480.809 173.566 483.067 174.608 485.498 174.608H537.077C547.15 174.608 554.097 172.871 557.917 169.398C561.738 165.577 564.864 158.804 567.295 149.079C569.379 141.438 572.505 137.617 576.673 137.617C578.063 137.617 579.452 138.312 580.841 139.701C582.578 141.09 583.446 143.174 583.446 145.953C583.446 147.342 583.273 150.468 582.925 155.331C582.925 160.194 582.752 165.23 582.404 170.44C582.057 175.65 581.883 179.644 581.883 182.423C581.883 185.896 581.883 190.585 581.883 196.49C582.231 202.047 582.404 207.431 582.404 212.641C582.752 217.851 582.925 221.151 582.925 222.54C582.925 224.971 582.578 227.055 581.883 228.792C581.536 230.529 580.32 231.397 578.236 231.397C573.026 231.397 569.032 225.84 566.253 214.725C564.169 206.736 561.391 200.832 557.917 197.011C554.444 193.19 549.234 191.28 542.287 191.28H493.834C487.93 191.28 483.414 192.148 480.288 193.885C477.51 195.274 476.12 198.921 476.12 204.826V304.858C476.12 318.057 478.899 327.261 484.456 332.471C490.014 337.334 498.697 339.765 510.506 339.765H549.06C560.175 339.765 569.379 339.244 576.673 338.202C584.315 336.813 590.914 334.381 596.471 330.908C602.029 327.087 606.891 322.051 611.059 315.799C615.575 309.547 620.611 301.211 626.168 290.791C627.21 288.707 628.426 286.97 629.815 285.581C631.205 284.192 632.768 283.671 634.504 284.018C636.241 284.365 637.63 285.234 638.672 286.623C639.714 287.665 640.235 289.228 640.235 291.312C640.235 294.438 639.367 299.995 637.63 307.984C635.894 315.625 633.636 323.614 630.857 331.95C628.426 340.286 626.168 346.885 624.084 351.748C623.042 354.179 622 356.263 620.958 358C620.264 359.737 618.874 360.605 616.79 360.605C600.118 360.605 584.662 360.431 570.421 360.084C556.181 359.737 542.635 359.389 529.783 359.042C516.932 358.695 504.254 358.347 491.75 358C479.594 357.653 466.916 357.479 453.717 357.479C446.076 357.479 439.477 357.653 433.919 358C428.362 358.695 422.631 359.216 416.726 359.563C410.822 360.258 403.18 360.605 393.802 360.605Z" fill="white"/>
<path d="M319.877 368.941C310.152 368.941 300.947 368.073 292.264 366.336C283.581 364.947 275.592 362.168 268.298 358C261.004 353.832 254.231 348.101 247.979 340.807C239.643 330.387 231.654 320.488 224.013 311.11C216.372 301.385 208.209 290.27 199.526 277.766C191.19 265.262 180.944 249.285 168.787 229.834C163.577 221.151 156.109 214.378 146.384 209.515C138.743 205.694 131.101 203.089 123.46 201.7C116.166 199.963 110.088 198.921 105.225 198.574C102.446 198.227 100.362 199.095 98.9729 201.179C97.9309 203.263 97.4099 205.868 97.4099 208.994V300.69C97.4099 311.805 100.015 321.53 105.225 329.866C110.435 337.855 119.466 343.065 132.317 345.496C138.222 346.538 142.563 347.754 145.342 349.143C148.121 350.532 149.51 352.443 149.51 354.874C149.51 356.958 148.121 358.347 145.342 359.042C142.563 360.084 138.916 360.605 134.401 360.605C125.023 360.605 117.729 360.258 112.519 359.563C107.656 358.868 103.141 358.347 98.9729 358C95.1522 357.305 89.9422 356.958 83.3429 356.958C74.6596 356.958 66.8446 357.305 59.8979 358C53.2986 358.347 46.5256 358.868 39.5789 359.563C32.9796 360.258 24.9909 360.605 15.6129 360.605C11.0976 360.605 7.45057 360.084 4.67191 359.042C1.89324 358.347 0.503906 356.958 0.503906 354.874C0.503906 350.706 6.23491 347.58 17.6969 345.496C30.8956 343.065 40.4472 339.07 46.3519 333.513C52.6039 327.956 55.7299 318.751 55.7299 305.9V83.9541C55.7299 70.7555 55.0352 60.8565 53.6459 54.2571C52.6039 47.3104 49.8252 42.4478 45.3099 39.6691C41.1419 36.8905 34.0216 34.9801 23.9489 33.9381C18.0442 33.2434 13.7026 32.0278 10.9239 30.2911C8.14524 28.2071 6.75591 25.9494 6.75591 23.5181C6.75591 21.4341 8.14524 20.0448 10.9239 19.3501C13.7026 18.3081 17.3496 17.7871 21.8649 17.7871C31.2429 17.7871 38.1896 17.7871 42.7049 17.7871C47.5676 17.7871 52.0829 17.9608 56.2509 18.3081C60.4189 18.3081 65.9762 18.3081 72.9229 18.3081C79.5222 18.3081 85.4269 18.1344 90.6369 17.7871C95.8469 17.0924 101.578 16.5714 107.83 16.2241C114.429 15.8768 122.765 15.7031 132.838 15.7031C171.045 15.7031 200.047 22.8234 219.845 37.0641C239.99 51.3048 250.063 72.6658 250.063 101.147C250.063 116.777 246.937 130.323 240.685 141.785C234.433 152.9 226.618 162.278 217.24 169.919C207.862 177.56 198.31 183.812 188.585 188.675C187.196 189.022 186.501 189.891 186.501 191.28C186.848 192.322 187.543 193.711 188.585 195.448C199.352 211.773 209.599 227.229 219.324 241.817C229.397 256.405 240.338 270.646 252.147 284.539C263.956 298.432 278.023 312.847 294.348 327.782C303.379 335.771 312.583 340.633 321.961 342.37C331.339 344.107 342.106 344.975 354.263 344.975C359.473 344.975 362.078 346.885 362.078 350.706C362.078 355.916 359.473 359.737 354.263 362.168C349.053 364.947 343.148 366.683 336.549 367.378C329.95 368.42 324.392 368.941 319.877 368.941ZM125.023 186.591C141 186.591 154.72 182.944 166.182 175.65C177.991 168.356 187.022 158.804 193.274 146.995C199.873 135.186 203.173 122.682 203.173 109.483C203.173 95.2424 201.263 82.2174 197.442 70.4081C193.969 58.5988 186.675 49.2208 175.56 42.2741C164.793 34.9801 148.468 31.3331 126.586 31.3331C115.471 31.3331 108.177 34.9801 104.704 42.2741C101.231 49.2208 99.1466 61.7248 98.4519 79.7861C98.1046 88.4694 97.7572 100.279 97.4099 115.214C97.4099 129.802 97.4099 147.516 97.4099 168.356C97.4099 177.039 99.8412 182.249 104.704 183.986C109.567 185.723 116.34 186.591 125.023 186.591Z" fill="white"/>
<path d="M108.036 622.496C105.179 622.496 102.451 622.366 100.633 622.106V610.547C102.191 610.677 104.919 610.807 106.867 610.807C111.153 610.807 114.79 610.417 118.037 601.585L119.726 596.909L93.8789 525.474H108.686L126.479 580.154H127.259L145.053 525.474H159.989L130.896 605.352C126.869 616.521 119.596 622.496 108.036 622.496Z" fill="white"/>
<path d="M23.6113 596V501.965H37.3789V536.903H38.1582C40.7559 532.487 45.4316 524.564 58.4199 524.564C75.4346 524.564 88.1631 537.942 88.1631 560.932C88.1631 583.661 75.6943 597.429 58.5498 597.429C45.6914 597.429 40.7559 589.636 38.1582 584.96H37.1191V596H23.6113ZM37.1191 560.672C37.1191 575.479 43.7432 585.609 55.4326 585.609C67.6416 585.609 74.0059 574.829 74.0059 560.672C74.0059 546.774 67.7715 536.384 55.4326 536.384C43.6133 536.384 37.1191 545.995 37.1191 560.672Z" fill="white"/>
</g>
<defs>
<clipPath id="clip0_1709_46">
<rect width="2565" height="623" fill="white"/>
</clipPath>
</defs>
</svg>
