<svg width="1967" height="684" viewBox="0 0 1967 684" fill="none" xmlns="http://www.w3.org/2000/svg">
<path d="M1793.44 441V164.728H1866.2V212.554H1869.25C1879.43 178.465 1904.87 160.657 1935.9 160.657C1943.53 160.657 1953.2 161.675 1959.81 163.201V230.361C1952.69 228.326 1938.45 226.291 1927.76 226.291C1893.67 226.291 1868.74 250.204 1868.74 283.784V441H1793.44Z" fill="white"/>
<path d="M1655.91 446.597C1571.45 446.597 1519.55 391.647 1519.55 304.136C1519.55 218.659 1571.96 161.166 1652.85 161.166C1725.61 161.166 1782.59 206.957 1782.59 301.083V322.452H1593.83C1593.83 364.173 1618.76 390.121 1657.43 390.121C1682.87 390.121 1701.19 378.928 1708.82 362.138H1780.56C1769.87 413.017 1724.08 446.597 1655.91 446.597ZM1593.83 275.135H1711.36C1711.36 241.555 1687.96 217.642 1654.38 217.642C1619.78 217.642 1595.1 243.335 1593.83 275.135Z" fill="white"/>
<path d="M1109.3 441V164.728H1181.04V213.062H1184.09C1195.8 181.009 1223.78 161.166 1260.92 161.166C1299.08 161.166 1327.06 181.009 1336.22 213.062H1338.77C1350.47 181.518 1381.5 161.166 1422.21 161.166C1473.6 161.166 1509.21 195.255 1509.21 255.292V441H1433.91V270.047C1433.91 238.502 1415.59 223.238 1390.66 223.238C1362.17 223.238 1345.89 243.081 1345.89 272.082V441H1272.62V268.012C1272.62 240.537 1255.33 223.238 1229.89 223.238C1204.45 223.238 1184.6 243.59 1184.6 275.135V441H1109.3Z" fill="white"/>
<path d="M842.025 363.664C842.025 302.101 891.887 281.749 944.801 278.696C964.644 277.424 1001.79 275.644 1013.49 275.135V252.748C1012.98 229.853 997.206 216.115 969.223 216.115C943.783 216.115 927.502 227.817 923.432 246.643H851.692C856.271 198.816 897.992 161.166 971.258 161.166C1031.29 161.166 1088.28 188.132 1088.28 254.783V441H1017.05V402.841H1015.01C1001.28 428.28 975.328 446.088 934.116 446.088C881.202 446.088 842.025 418.613 842.025 363.664ZM914.273 361.629C914.273 382.998 931.572 394.191 955.485 394.191C989.574 394.191 1014 371.296 1013.49 342.295V321.943C1002.04 322.452 969.986 324.233 957.012 325.505C931.063 328.049 914.273 340.26 914.273 361.629Z" fill="white"/>
<path d="M655.646 281.24V441H580.345V164.728H652.084V213.062H655.137C667.856 181.009 697.366 161.166 738.069 161.166C795.562 161.166 833.722 200.343 833.213 264.959V441H758.421V278.188C758.421 244.099 739.596 223.747 708.56 223.747C677.015 223.747 655.646 244.607 655.646 281.24Z" fill="white"/>
<path d="M442.81 446.597C358.351 446.597 306.454 391.647 306.454 304.136C306.454 218.659 358.859 161.166 439.757 161.166C512.514 161.166 569.498 206.957 569.498 301.083V322.452H380.737C380.737 364.173 405.668 390.121 444.336 390.121C469.775 390.121 488.092 378.928 495.724 362.138H567.463C556.778 413.017 510.987 446.597 442.81 446.597ZM380.737 275.135H498.268C498.268 241.555 474.863 217.642 441.283 217.642C406.686 217.642 382.009 243.335 380.737 275.135Z" fill="white"/>
<path d="M31.0361 441V72.6367H175.532C259.482 72.6367 307.309 119.954 307.309 192.711C307.309 243.081 284.159 279.714 242.184 297.521L320.537 441H236.078L165.865 310.241H107.354V441H31.0361ZM107.354 248.169H161.286C206.568 248.169 228.446 229.344 228.446 192.711C228.446 155.569 206.568 135.218 161.286 135.218H107.354V248.169Z" fill="white"/>
<path d="M1482.88 616V503H1503.82V553.101H1505.21L1541.93 503H1567.21L1529.51 553.569L1567.62 616H1542.49L1514.43 569.333L1503.82 583.692V616H1482.88Z" fill="white"/>
<path d="M1468.75 503V616H1440.5V503H1468.75Z" fill="white"/>
<path d="M1426.38 503V616H1405.09L1353.04 544.204H1352.06V616H1327.5V503H1349.11L1400.84 574.796H1401.98V503H1426.38Z" fill="white"/>
<path d="M1214.5 616V503H1238.62V549.823H1289.1V503H1313.38V616H1289.1V569.177H1238.62V616H1214.5Z" fill="white"/>
<path d="M1177.25 542.793C1175.43 530.642 1166 523.2 1153.22 523.2C1136.03 523.2 1124.77 536.414 1124.77 559.5C1124.77 583.194 1136.18 595.8 1153.07 595.8C1165.69 595.8 1174.97 588.813 1177.25 576.966L1200.38 577.118C1197.79 597.47 1180.75 616 1152.76 616C1123.25 616 1101.5 595.344 1101.5 559.5C1101.5 523.656 1123.71 503 1152.76 503C1178.17 503 1197.33 517.581 1200.38 542.793H1177.25Z" fill="white"/>
<path d="M1016.75 616V503H1087.23V522.354H1038.5V549.823H1083.6V569.177H1038.5V596.646H1087.38V616H1016.75Z" fill="white"/>
<path d="M917.875 522.354V503H1002.63V522.354H970.897V616H949.603V522.354H917.875Z" fill="white"/>
<path d="M839.764 559.5H826.486L827.757 540.343L811.514 551.032L804.875 539.787L822.39 531.319L804.875 522.713L811.514 511.468L827.757 522.157L826.486 503H839.764L838.492 522.157L854.736 511.468L861.375 522.713L843.86 531.319L861.375 539.787L854.736 551.032L838.492 540.343L839.764 559.5Z" fill="white"/>
<path d="M649.5 616V503H673.616V549.823H724.098V503H748.375V616H724.098V569.177H673.616V616H649.5Z" fill="white"/>
<path d="M612.253 542.793C610.428 530.642 600.997 523.2 588.219 523.2C571.03 523.2 559.774 536.414 559.774 559.5C559.774 583.194 571.182 595.8 588.067 595.8C600.693 595.8 609.972 588.813 612.253 576.966L635.375 577.118C632.789 597.47 615.752 616 587.763 616C558.253 616 536.5 595.344 536.5 559.5C536.5 523.656 558.709 503 587.763 503C613.166 503 632.333 517.581 635.375 542.793H612.253Z" fill="white"/>
<path d="M522.375 503V616H494.125V503H522.375Z" fill="white"/>
<path d="M409.375 616V503H432.305V596.646H480V616H409.375Z" fill="white"/>
<path d="M268.125 503H298.362L331.037 579.634H332.338L365.013 503H395.25V616H371.516V542.019H370.54L339.816 615.532H323.559L292.835 541.707H291.859V616H268.125V503Z" fill="white"/>
<path d="M254 503V616H225.75V503H254Z" fill="white"/>
<path d="M141 616V503H211.48V522.354H162.753V549.823H207.854V569.177H162.753V596.646H211.625V616H141Z" fill="white"/>
<path d="M28 616V503H52.1159V549.823H102.598V503H126.875V616H102.598V569.177H52.1159V616H28Z" fill="white"/>
<path d="M1634.39 542.561L1625.28 519.801V542.561H1615.57V503.11H1627.26L1637.12 529.208L1646.98 503.11H1658.66V542.561H1648.95V519.801L1639.85 542.561H1634.39ZM1586.74 542.561V511.152H1574.76V503.11H1608.59V511.152H1596.61V542.561H1586.74Z" fill="white"/>
</svg>
