<svg width="1024" height="1024" viewBox="0 0 1024 1024" fill="none" xmlns="http://www.w3.org/2000/svg">
<g clip-path="url(#clip0_1722_9)">
<rect width="1024" height="1024" rx="199" fill="white"/>
<path d="M624.905 825C608.982 825 593.912 823.579 579.695 820.737C565.477 818.464 552.398 813.917 540.455 807.097C528.513 800.277 517.424 790.9 507.187 778.965C493.539 761.914 480.459 745.717 467.948 730.372C455.437 714.458 442.073 696.271 427.856 675.811C414.207 655.351 397.431 629.207 377.527 597.381C368.997 583.172 356.77 572.089 340.847 564.133C328.336 557.881 315.825 553.618 303.314 551.345C291.372 548.503 281.42 546.798 273.458 546.23C268.909 545.662 265.497 547.083 263.222 550.493C261.516 553.903 260.663 558.165 260.663 563.28V713.322C260.663 731.508 264.928 747.422 273.458 761.062C281.988 774.134 296.774 782.659 317.816 786.637C327.483 788.342 334.592 790.331 339.141 792.605C343.691 794.878 345.965 798.004 345.965 801.982C345.965 805.392 343.691 807.666 339.141 808.802C334.592 810.507 328.621 811.36 321.228 811.36C305.873 811.36 293.931 810.792 285.401 809.655C277.439 808.518 270.046 807.666 263.222 807.097C256.966 805.961 248.436 805.392 237.631 805.392C223.414 805.392 210.619 805.961 199.245 807.097C188.44 807.666 177.351 808.518 165.977 809.655C155.172 810.792 142.092 811.36 126.738 811.36C119.345 811.36 113.374 810.507 108.824 808.802C104.275 807.666 102 805.392 102 801.982C102 795.162 111.383 790.047 130.15 786.637C151.76 782.659 167.399 776.123 177.066 767.03C187.303 757.936 192.421 742.875 192.421 721.847V358.678C192.421 337.082 191.283 320.884 189.009 310.086C187.303 298.719 182.753 290.762 175.36 286.215C168.536 281.669 156.878 278.543 140.386 276.838C130.719 275.701 123.61 273.712 119.061 270.87C114.511 267.46 112.236 263.766 112.236 259.788C112.236 256.378 114.511 254.104 119.061 252.968C123.61 251.262 129.581 250.41 136.974 250.41C152.329 250.41 163.702 250.41 171.095 250.41C179.057 250.41 186.45 250.694 193.274 251.263C200.098 251.263 209.197 251.263 220.571 251.263C231.376 251.263 241.043 250.978 249.573 250.41C258.104 249.273 267.487 248.421 277.723 247.852C288.528 247.284 302.177 247 318.669 247C381.224 247 428.709 258.651 461.124 281.953C494.108 305.255 510.599 340.207 510.599 386.811C510.599 412.386 505.481 434.552 495.245 453.307C485.009 471.494 472.213 486.839 456.859 499.342C441.504 511.846 425.866 522.076 409.942 530.032C407.668 530.601 406.53 532.022 406.53 534.295C407.099 536 408.236 538.273 409.942 541.115C427.572 567.827 444.348 593.118 460.271 616.988C476.763 640.858 494.676 664.16 514.012 686.894C533.347 709.627 556.378 733.213 583.107 757.652C597.892 770.724 612.963 778.68 628.317 781.522C643.671 784.364 661.301 785.785 681.205 785.785C689.735 785.785 694 788.911 694 795.162C694 803.687 689.735 809.939 681.205 813.917C672.674 818.464 663.007 821.306 652.202 822.443C641.397 824.148 632.298 825 624.905 825ZM305.873 526.622C332.033 526.622 354.496 520.655 373.262 508.72C392.598 496.785 407.383 481.155 417.62 461.832C428.425 442.508 433.827 422.048 433.827 400.451C433.827 377.149 430.699 355.837 424.444 336.513C418.757 317.19 406.815 301.845 388.617 290.478C370.988 278.543 344.259 272.575 308.432 272.575C290.234 272.575 278.292 278.543 272.605 290.478C266.918 301.845 263.506 322.305 262.369 351.858C261.8 366.067 261.232 385.39 260.663 409.829C260.663 433.699 260.663 462.684 260.663 496.785C260.663 510.993 264.644 519.518 272.605 522.36C280.567 525.202 291.656 526.622 305.873 526.622Z" fill="black"/>
<path d="M870.442 580C867.675 580 862.143 577.689 853.844 573.067C845.853 568.444 838.169 561.049 830.792 550.88C829.563 549.339 825.721 544.717 819.266 537.013C813.119 529.31 805.128 519.757 795.292 508.356C785.764 496.646 775.314 484.012 763.942 470.453C752.569 456.895 741.197 443.336 729.825 429.778C718.452 416.219 707.848 403.739 698.013 392.338C688.177 380.628 679.879 370.921 673.117 363.218C666.662 355.206 662.667 350.276 661.13 348.427C658.978 345.653 657.134 343.804 655.597 342.88C654.061 341.647 652.677 341.031 651.448 341.031C649.911 341.031 648.835 342.264 648.221 344.729C647.606 346.886 647.299 348.889 647.299 350.738C646.991 365.837 646.684 383.247 646.377 402.969C646.069 422.69 645.762 443.028 645.455 463.982C645.147 484.936 644.993 504.966 644.993 524.071C644.993 532.391 646.991 540.095 650.987 547.182C655.29 554.27 663.128 558.892 674.5 561.049C679.725 561.973 683.567 563.052 686.026 564.284C688.485 565.517 689.714 567.212 689.714 569.369C689.714 571.218 688.485 572.45 686.026 573.067C683.567 573.991 680.34 574.453 676.344 574.453C668.045 574.453 661.745 574.145 657.442 573.529C653.446 573.221 649.758 572.913 646.377 572.604C643.303 572.296 638.846 572.142 633.006 572.142C627.474 572.142 623.171 572.296 620.097 572.604C617.024 572.913 613.489 573.221 609.494 573.529C605.498 574.145 599.351 574.453 591.052 574.453C587.056 574.453 583.829 573.991 581.37 573.067C578.911 572.45 577.682 571.218 577.682 569.369C577.682 567.212 578.911 565.517 581.37 564.284C583.829 563.052 587.671 561.819 592.896 560.587C601.81 558.121 608.264 553.653 612.26 547.182C616.255 540.403 618.714 532.237 619.636 522.684C620.866 510.975 622.095 495.567 623.325 476.462C624.554 457.049 625.63 435.479 626.552 411.751C627.474 387.716 627.935 363.064 627.935 337.796C627.935 321.464 623.632 309.754 615.026 302.667C606.727 295.579 595.816 289.879 582.292 285.564C581.063 284.948 578.297 283.716 573.994 281.867C569.998 279.71 568 277.244 568 274.471C568 271.698 569.383 270.003 572.149 269.387C574.916 268.462 577.067 268 578.604 268C587.517 268.308 594.74 268.616 600.273 268.924C605.805 268.924 610.723 269.079 615.026 269.387C619.329 269.695 624.093 270.003 629.318 270.311C634.543 270.311 641.305 270.311 649.604 270.311C652.37 270.311 654.522 271.081 656.058 272.622C657.595 274.163 659.132 276.012 660.669 278.169C661.898 280.018 665.894 285.256 672.656 293.884C679.725 302.204 688.331 312.836 698.474 325.778C708.924 338.412 720.297 352.279 732.591 367.378C744.885 382.169 757.18 397.114 769.474 412.213C781.768 427.004 793.141 440.871 803.591 453.813C814.041 466.447 822.647 476.924 829.409 485.244C836.478 493.564 840.628 498.495 841.857 500.036C843.087 501.268 844.777 503.117 846.929 505.582C849.387 508.047 851.539 509.28 853.383 509.28C856.149 509.28 857.686 506.044 857.993 499.573C857.993 495.259 857.993 487.093 857.993 475.076C858.301 462.75 858.455 447.959 858.455 430.702C858.762 413.138 858.916 394.187 858.916 373.849C858.916 353.511 858.916 332.711 858.916 311.449C858.608 305.286 855.381 299.739 849.234 294.809C843.087 289.879 837.4 286.951 832.175 286.027C826.95 285.102 822.186 283.87 817.883 282.329C813.58 280.788 811.429 278.939 811.429 276.782C811.429 274.933 813.58 273.701 817.883 273.084C822.186 272.16 826.335 271.698 830.331 271.698C833.405 271.698 836.325 271.698 839.091 271.698C842.165 271.698 845.084 271.698 847.851 271.698C850.924 271.698 853.844 271.698 856.61 271.698C863.987 271.698 869.827 271.698 874.13 271.698C878.433 271.39 883.043 271.081 887.961 270.773C893.186 270.465 900.409 270.311 909.63 270.311C913.626 270.311 916.853 270.773 919.312 271.698C921.771 272.314 923 273.547 923 275.396C923 279.71 917.929 282.791 907.786 284.64C896.413 286.797 888.883 289.57 885.195 292.96C881.507 296.35 879.355 301.896 878.74 309.6C878.74 311.141 878.587 317.15 878.279 327.627C878.279 338.104 878.279 351.354 878.279 367.378C878.279 383.401 878.126 400.658 877.818 419.147C877.818 437.636 877.818 456.124 877.818 474.613C877.818 492.794 877.818 509.126 877.818 523.609C877.818 531.004 877.972 537.784 878.279 543.947C878.894 549.801 879.355 554.886 879.662 559.2C879.97 563.206 880.123 566.287 880.123 568.444C880.123 573.375 879.048 576.456 876.896 577.689C875.052 579.23 872.9 580 870.442 580Z" fill="black"/>
</g>
<defs>
<clipPath id="clip0_1722_9">
<rect width="1024" height="1024" fill="white"/>
</clipPath>
</defs>
</svg>
